<svg xmlns="http://www.w3.org/2000/svg" width="96" height="48" viewBox="0 0 96 48" fill="none">
  <rect x="0.75" y="0.75" width="94.5" height="46.5" rx="8" fill="#ffffff" stroke="#E5E7EB" stroke-width="1.5"/>
  <g transform="translate(10,10)">
    <path d="M14 2L2 8v2h24V8L14 2Z" fill="#111827"/>
    <path d="M4 12h4v10H4V12Zm7 0h4v10h-4V12Zm7 0h4v10h-4V12Z" fill="#374151"/>
    <path d="M2 24h24v2H2v-2Z" fill="#111827"/>
  </g>
  <g transform="translate(44,14)" fill="#111827">
    <path d="M0 0h1.6c1.7 0 2.8.9 2.8 2.3 0 1.4-1.1 2.3-2.8 2.3H0V0Zm1.6 3.3c.9 0 1.4-.4 1.4-1 0-.6-.5-1-1.4-1H1.4v2H1.6Z"/>
    <path d="M6.4 0h1.4v4.6H6.4V0Z"/>
    <path d="M10.2 0h3.9v1.2h-2.5v.6H14v1.1h-2.4v.7h2.5v1.2h-3.9V0Z"/>
  </g>
</svg>

